<svg width="171" height="35" viewBox="0 0 171 35" fill="none" xmlns="http://www.w3.org/2000/svg">
<path d="M0.154297 1.17188H7.4834C12.3695 1.17188 15.5176 2.61914 16.9277 5.51367C17.4349 6.57747 17.6885 7.83919 17.6885 9.29883C17.6885 10.7585 17.4287 12.0078 16.9092 13.0469C16.3896 14.0859 15.6908 14.9395 14.8125 15.6074C13.1055 16.8939 10.8232 17.5371 7.96582 17.5371H3.86523V27H0.154297V1.17188ZM7.24219 14.5684C9.48112 14.5684 11.1387 14.1354 12.2148 13.2695C13.291 12.4036 13.8291 11.0553 13.8291 9.22461C13.8291 6.78776 12.6973 5.2168 10.4336 4.51172C9.64193 4.26432 8.68327 4.14062 7.55762 4.14062H3.86523V14.5684H7.24219ZM20.8242 17.3887C20.8242 14.3828 21.7829 11.946 23.7002 10.0781C25.4938 8.33398 27.7142 7.46191 30.3613 7.46191C32.959 7.46191 35.1299 8.33398 36.874 10.0781C38.7295 11.9336 39.6572 14.3704 39.6572 17.3887C39.6572 20.3945 38.7233 22.819 36.8555 24.6621C35.0866 26.4186 32.9157 27.2969 30.3428 27.2969C27.7327 27.2969 25.5186 26.4186 23.7002 24.6621C21.7829 22.819 20.8242 20.3945 20.8242 17.3887ZM24.6836 17.3887C24.6836 20.5553 25.6979 22.7077 27.7266 23.8457C28.444 24.2415 29.3037 24.4395 30.3057 24.4395C31.3076 24.4395 32.1549 24.2415 32.8477 23.8457C33.5404 23.4375 34.1094 22.9056 34.5547 22.25C35.3835 20.9883 35.7979 19.3678 35.7979 17.3887C35.7979 14.2467 34.8021 12.0944 32.8105 10.9316C32.1178 10.5234 31.2891 10.3193 30.3242 10.3193C29.3594 10.3193 28.5182 10.5234 27.8008 10.9316C27.0957 11.3275 26.5143 11.8532 26.0566 12.5088C25.1413 13.7952 24.6836 15.4219 24.6836 17.3887ZM56.3936 11.2471C55.7132 11.0492 54.8968 10.9502 53.9443 10.9502C53.0042 10.9502 52.2311 11.0492 51.625 11.2471C51.0189 11.4326 50.487 11.6615 50.0293 11.9336C49.1882 12.4284 48.5758 12.985 48.1924 13.6035V27H44.4814V7.85156H48.0439L48.1924 10.5049C49.1201 9.34212 50.4746 8.47005 52.2559 7.88867C52.8991 7.66602 53.6351 7.55469 54.4639 7.55469C55.2926 7.55469 55.9359 7.61654 56.3936 7.74023V11.2471ZM73.8164 26.9443C73.0742 27.1794 71.7878 27.2969 69.957 27.2969C68.1263 27.2969 66.5677 27.0742 65.2812 26.6289C64.0072 26.1836 62.9186 25.528 62.0156 24.6621C60.1478 22.8685 59.2139 20.3822 59.2139 17.2031C59.2139 14.123 60.3333 11.6986 62.5723 9.92969C64.5762 8.34635 67.0378 7.55469 69.957 7.55469C71.763 7.55469 73 7.61654 73.668 7.74023V11.043C72.6289 10.709 71.4414 10.542 70.1055 10.542C68.7819 10.542 67.681 10.7275 66.8027 11.0986C65.9245 11.4574 65.207 11.946 64.6504 12.5645C63.599 13.7396 63.0732 15.2858 63.0732 17.2031C63.0732 20.444 64.2422 22.6025 66.5801 23.6787C67.4089 24.0622 68.2191 24.2539 69.0107 24.2539C69.8024 24.2539 70.4085 24.2354 70.8291 24.1982C71.262 24.1611 71.6702 24.1117 72.0537 24.0498C72.8701 23.9137 73.4577 23.7715 73.8164 23.623V26.9443ZM91.5176 22.3057V7.85156H95.2285V27H91.8887L91.5547 24.9775C89.724 26.5238 87.7015 27.2969 85.4873 27.2969C83.137 27.2969 81.4733 26.6475 80.4961 25.3486C79.4818 24.0251 78.9746 21.7428 78.9746 18.502V7.85156H82.6855V18.3164C82.6855 20.6048 83.0133 22.1634 83.6689 22.9922C84.2503 23.7344 85.3574 24.1055 86.9902 24.1055C88.6354 24.1055 90.1445 23.5055 91.5176 22.3057ZM105.211 34.4219H101.5V7.85156H104.84L104.988 10.041C105.73 9.05143 106.868 8.31543 108.402 7.83301C108.996 7.64746 109.596 7.55469 110.202 7.55469C110.821 7.55469 111.427 7.62272 112.021 7.75879C112.614 7.88249 113.202 8.09277 113.783 8.38965C114.365 8.67415 114.921 9.05762 115.453 9.54004C115.985 10.0101 116.455 10.5977 116.863 11.3027C117.754 12.8242 118.199 14.7106 118.199 16.9619C118.199 20.4007 117.012 23.0293 114.637 24.8477C112.534 26.4681 109.973 27.2783 106.955 27.2783H106.027C105.73 27.2783 105.458 27.2721 105.211 27.2598V34.4219ZM105.211 24.2539C105.557 24.3529 106.238 24.4023 107.252 24.4023C108.266 24.4023 109.219 24.2601 110.109 23.9756C111 23.6911 111.755 23.252 112.373 22.6582C113.684 21.3965 114.34 19.4977 114.34 16.9619C114.34 14.5745 113.771 12.8118 112.633 11.6738C111.792 10.8327 110.765 10.4121 109.553 10.4121C108.031 10.4121 106.77 10.9749 105.768 12.1006C105.508 12.3851 105.322 12.6387 105.211 12.8613V24.2539ZM127.736 2.28516C127.736 2.99023 127.501 3.53451 127.031 3.91797C126.574 4.28906 125.998 4.47461 125.306 4.47461C124.613 4.47461 124.038 4.28906 123.58 3.91797C123.135 3.53451 122.912 2.99023 122.912 2.28516C122.912 1.56771 123.135 1.02344 123.58 0.652344C124.038 0.28125 124.613 0.0957031 125.306 0.0957031C125.998 0.0957031 126.574 0.28125 127.031 0.652344C127.501 1.02344 127.736 1.56771 127.736 2.28516ZM123.395 7.85156H127.105V27H123.395V7.85156ZM141.578 10.7461C139.735 10.7461 138.096 11.3708 136.661 12.6201V27H132.95V7.85156H136.383L136.643 9.92969C138.659 8.34635 140.743 7.55469 142.896 7.55469C145.172 7.55469 146.841 8.23503 147.905 9.5957C149.019 11.0306 149.575 13.3438 149.575 16.5352V27H145.864V16.5352C145.864 13.4674 145.035 11.6367 143.378 11.043C142.846 10.8451 142.246 10.7461 141.578 10.7461ZM164.085 27.2969C157.084 27.2969 153.583 23.8766 153.583 17.0361C153.583 14.0921 154.554 11.7357 156.496 9.9668C158.24 8.35872 160.232 7.55469 162.471 7.55469C164.908 7.55469 166.812 8.37109 168.186 10.0039C169.46 11.5254 170.097 13.5602 170.097 16.1084V17.5557H157.442C157.442 21.0563 158.871 23.1963 161.729 23.9756C162.409 24.1611 163.454 24.2539 164.864 24.2539C166.287 24.2539 167.678 24.0622 169.039 23.6787V26.8145C167.678 27.1361 166.027 27.2969 164.085 27.2969ZM166.386 14.8281C166.386 13.6406 166.058 12.6387 165.402 11.8223C164.635 10.8822 163.578 10.4121 162.229 10.4121C160.807 10.4121 159.65 10.8636 158.76 11.7666C157.943 12.6077 157.535 13.6283 157.535 14.8281H166.386Z" fill="white"/>
</svg>
