<svg width="156" height="110" viewBox="0 0 156 110" fill="none" xmlns="http://www.w3.org/2000/svg">
<path d="M51.931 79.4507C50.7698 97.2167 58.3175 107.319 70.0454 107.319C74.1099 107.319 76.7358 107.319 77.9421 106.042C79.1485 104.764 76.0826 103.487 74.1094 100.933C72.6007 96.52 80.0316 100.584 86.0698 89.6691C87.226 87.5789 90.5209 87.5789 92.4562 89.6691C95.8967 93.3849 101.281 107.319 113.357 107.319C117.654 107.319 119.041 107.939 125.782 107.319C128.336 107.319 127.291 102.674 125.782 99.3069C124.04 94.5461 126.014 92.1076 128.336 87.579C128.336 87.579 130.891 89.3207 134.143 91.4109C135.188 95.0105 137.395 98.2618 139.949 101.165C141.788 103.255 139.6 106.506 141.458 107.319C143.316 108.132 145.123 106.39 146.335 104.648C148.193 101.978 149.818 95.0105 147.148 90.0174" stroke="white" stroke-width="3.71578" stroke-linecap="round"/>
<path d="M142.039 88.8559C144.709 88.1592 148.425 87.6835 148.425 81.5405C148.425 78.8698 142.649 78.9637 139.484 79.5664C136.715 80.0939 132.97 81.9813 133.33 84.0951C134.138 88.8446 139.368 89.5526 142.039 88.8559Z" fill="white" stroke="white" stroke-width="3.71578" stroke-linecap="round"/>
<path d="M71.9033 47.7504C66.678 45.3717 53.7889 47.5096 45.5445 50.2981C37.3001 53.0866 24.411 54.4852 18.1406 51.5823" stroke="white" stroke-width="3.71578" stroke-linecap="round"/>
<path d="M84.4437 40.7064C79.2571 38.1905 67.1344 34.733 52.8596 38.5001C47.8665 39.8178 36.3708 40.7064 31.1455 38.5001" stroke="white" stroke-width="3.71578" stroke-linecap="round"/>
<path d="M146.451 51.1179C148.657 45.8152 151.212 33.0731 143.78 24.5269" stroke="white" stroke-width="3.71578" stroke-linecap="round"/>
<path d="M137.742 42.9897C140.065 39.6223 139.716 18.6049 130.427 12.4507" stroke="white" stroke-width="3.71578" stroke-linecap="round"/>
<path d="M129.614 36.3709C131.123 28.9007 127.524 10.2444 109.293 2" stroke="white" stroke-width="3.71578" stroke-linecap="round"/>
<path d="M120.905 33.7003C118.853 25.6107 112.196 7.57371 85.9531 3.27734" stroke="white" stroke-width="3.71578" stroke-linecap="round"/>
<path d="M153.766 44.9639C154.347 49.8408 154.208 60.4772 149.006 64.0072C152.489 70.5098 152.837 81.7733 147.496 87.347C143.586 91.4267 139.948 91.295 137.626 91.295C134.026 91.295 130.659 89.4371 127.872 86.6503" stroke="white" stroke-width="3.71578" stroke-linecap="round"/>
<path d="M109.061 34.0216C105.995 27.7223 97.184 14.0059 75.9673 13.8451C72.8053 13.8212 67.6068 13.8451 62.4976 12.5664" stroke="white" stroke-width="3.71578" stroke-linecap="round"/>
<path d="M95.8232 35.0936C92.301 31.2617 88.3917 24.5269 69.3483 24.5269C58.4332 24.5269 54.6013 27.0815 44.499 24.5269" stroke="white" stroke-width="3.71578" stroke-linecap="round"/>
<path d="M62.4973 58.4334C57.0398 57.969 50.0358 60.0444 43.454 63.302C33.3517 68.3021 19.1853 69.1163 6.06396 65.4005" stroke="white" stroke-width="3.71578" stroke-linecap="round"/>
<path d="M53.9048 68.6518C48.4472 68.1873 36.6032 77.9273 28.7072 80.7211C20.8111 83.5149 8.61873 83.0504 2 78.8702" stroke="white" stroke-width="3.71578" stroke-linecap="round"/>
<path d="M51.9309 79.1025C42.9898 83.9795 35.0937 90.2499 30.5651 92.6884C26.0365 95.1268 14.8892 100.004 6.99316 92.6884" stroke="white" stroke-width="3.71578" stroke-linecap="round"/>
<circle cx="127.175" cy="73.7609" r="3.48354" fill="white"/>
<circle cx="149.702" cy="71.4386" r="3.48354" fill="white"/>
</svg>
